<svg width="36" height="35" viewBox="0 0 36 35" fill="none" xmlns="http://www.w3.org/2000/svg">
<g id="24 / time / calendar-dates">
<path id="icon" fill-rule="evenodd" clip-rule="evenodd" d="M11.7797 8.39827H8.86304V6.56498H6.0297V11.3149H29.363V6.56498H26.363V8.39827H23.4464V6.56498H11.7797V8.39827ZM29.363 14.2316H6.0297V28.44H29.363V14.2316ZM23.4464 3.64832H11.7797V2.56494H8.86304V3.64832H6.0297C4.41887 3.64832 3.11304 4.95415 3.11304 6.56498V28.44C3.11304 30.0508 4.41887 31.3567 6.0297 31.3567H29.363C30.9739 31.3567 32.2797 30.0508 32.2797 28.44V6.56498C32.2797 4.95415 30.9739 3.64832 29.363 3.64832H26.363V2.56494H23.4464V3.64832ZM10.3214 20.0649V17.1483H13.238V20.0649H10.3214ZM16.1547 20.0649H19.0714V17.1483H16.1547V20.0649ZM24.9047 20.0649H21.988V17.1483H24.9047V20.0649ZM10.3214 22.9816V25.8983H13.238V22.9816H10.3214ZM19.0714 25.8983H16.1547V22.9816H19.0714V25.8983Z" fill="#3769CC"/>
</g>
</svg>
