<svg width="54" height="57" viewBox="0 0 54 57" fill="none" xmlns="http://www.w3.org/2000/svg">
    <g filter="url(#filter0_d)">
        <path fill-rule="evenodd" clip-rule="evenodd" d="M31.6666 3.3335H18.3333C12.8104 3.3335 8.33325 7.81065 8.33325 13.3335V26.6668C8.33325 32.1897 12.8104 36.6668 18.3333 36.6668H31.6666C37.1894 36.6668 41.6666 32.1897 41.6666 26.6668V13.3335C41.6666 7.81065 37.1894 3.3335 31.6666 3.3335ZM11.6666 13.3335C11.6666 9.6516 14.6514 6.66683 18.3333 6.66683H31.6666C35.3485 6.66683 38.3333 9.6516 38.3333 13.3335V26.6668C38.3333 30.3487 35.3485 33.3335 31.6666 33.3335H18.3333C14.6514 33.3335 11.6666 30.3487 11.6666 26.6668V13.3335ZM24.9999 28.3335C20.3975 28.3335 16.6666 24.6025 16.6666 20.0002C16.6666 15.3978 20.3975 11.6668 24.9999 11.6668C29.6023 11.6668 33.3333 15.3978 33.3333 20.0002C33.3333 24.6025 29.6023 28.3335 24.9999 28.3335ZM24.9999 25.0002C27.7613 25.0002 29.9999 22.7616 29.9999 20.0002C29.9999 17.2387 27.7613 15.0002 24.9999 15.0002C22.2385 15.0002 19.9999 17.2387 19.9999 20.0002C19.9999 22.7616 22.2385 25.0002 24.9999 25.0002ZM34.9999 11.6668C34.9999 12.5873 34.2537 13.3335 33.3333 13.3335C32.4128 13.3335 31.6666 12.5873 31.6666 11.6668C31.6666 10.7464 32.4128 10.0002 33.3333 10.0002C34.2537 10.0002 34.9999 10.7464 34.9999 11.6668Z" fill="white"/>
    </g>
    <defs>
        <filter id="filter0_d" x="-1" y="0" width="60" height="60" filterUnits="userSpaceOnUse" color-interpolation-filters="sRGB">
            <feFlood flood-opacity="0" result="BackgroundImageFix"/>
            <feColorMatrix in="SourceAlpha" type="matrix" values="0 0 0 0 0 0 0 0 0 0 0 0 0 0 0 0 0 0 127 0"/>
            <feOffset dx="2" dy="10"/>
            <feGaussianBlur stdDeviation="5"/>
            <feColorMatrix type="matrix" values="0 0 0 0 0 0 0 0 0 0 0 0 0 0 0 0 0 0 0.25 0"/>
            <feBlend mode="normal" in2="BackgroundImageFix" result="effect1_dropShadow"/>
            <feBlend mode="normal" in="SourceGraphic" in2="effect1_dropShadow" result="shape"/>
        </filter>
    </defs>
</svg>
