<svg width="56" height="58" viewBox="0 0 56 58" fill="none" xmlns="http://www.w3.org/2000/svg">
    <g filter="url(#filter0_d)">
        <path d="M31.1627 19.9944C31.1627 22.8417 28.8527 25.1518 26.0054 25.1518C23.1581 25.1518 20.848 22.8417 20.848 19.9944C20.848 17.1471 23.1581 14.8371 26.0054 14.8371C28.8527 14.8371 31.1627 17.1579 31.1627 19.9944ZM26.0054 2.85693C16.5502 2.85693 8.85718 10.55 8.85718 20.0052C8.85718 29.4603 16.5502 37.1426 26.0054 37.1426C29.4651 37.1426 32.8067 36.1112 35.6647 34.1557L35.7184 34.1234L33.4083 31.4373L33.3654 31.4588C31.1627 32.8663 28.627 33.6184 26.0054 33.6184C18.495 33.6184 12.3814 27.5048 12.3814 19.9944C12.3814 12.484 18.495 6.37039 26.0054 6.37039C33.5158 6.37039 39.6294 12.484 39.6294 19.9944C39.6294 20.9722 39.522 21.9499 39.3071 22.9277C38.8773 24.7005 37.6417 25.2377 36.7069 25.1625C35.7721 25.0873 34.6762 24.4212 34.6655 22.788V19.9944C34.6655 15.2131 30.7759 11.3236 25.9946 11.3236C21.2133 11.3236 17.3238 15.2131 17.3238 19.9944C17.3238 24.7757 21.2133 28.6652 25.9946 28.6652C28.3155 28.6652 30.4966 27.7519 32.1405 26.108C33.0968 27.5908 34.6547 28.5256 36.4275 28.6652C36.578 28.676 36.7391 28.6867 36.8896 28.6867C38.1359 28.6867 39.3715 28.2677 40.3708 27.5156C41.4022 26.7312 42.1651 25.6031 42.5841 24.2492C42.6486 24.0344 42.7775 23.5294 42.7775 23.5294V23.5079C43.0247 22.4227 43.1429 21.3375 43.1429 19.9944C43.1536 10.55 35.4605 2.85693 26.0054 2.85693Z" fill="white"/>
    </g>
    <defs>
        <filter id="filter0_d" x="-1" y="0" width="60" height="60" filterUnits="userSpaceOnUse" color-interpolation-filters="sRGB">
            <feFlood flood-opacity="0" result="BackgroundImageFix"/>
            <feColorMatrix in="SourceAlpha" type="matrix" values="0 0 0 0 0 0 0 0 0 0 0 0 0 0 0 0 0 0 127 0"/>
            <feOffset dx="2" dy="10"/>
            <feGaussianBlur stdDeviation="5"/>
            <feColorMatrix type="matrix" values="0 0 0 0 0 0 0 0 0 0 0 0 0 0 0 0 0 0 0.25 0"/>
            <feBlend mode="normal" in2="BackgroundImageFix" result="effect1_dropShadow"/>
            <feBlend mode="normal" in="SourceGraphic" in2="effect1_dropShadow" result="shape"/>
        </filter>
    </defs>
</svg>
