<svg width="17" height="16" viewBox="0 0 17 16" fill="none" xmlns="http://www.w3.org/2000/svg">
<path fill-rule="evenodd" clip-rule="evenodd" d="M6.29861 4.00016H4.96527V3.3335H3.63189V5.33349H14.2986V3.3335H12.9652V4.00016H11.6319V3.3335H6.29861V4.00016ZM14.2986 6.66683H3.63189V13.3335H14.2986V6.66683ZM11.6319 2.00019H6.29861V1.3335H4.96527V2.00019H3.63192C2.89554 2.00019 2.29858 2.59714 2.29858 3.33352V13.3335C2.29858 14.0699 2.89554 14.6669 3.63192 14.6669H14.2986C15.035 14.6669 15.6319 14.0699 15.6319 13.3335V3.33352C15.6319 2.59714 15.035 2.00019 14.2986 2.00019H12.9652V1.3335H11.6319V2.00019ZM6.96523 9.33352H5.63189V8.00019H6.96523V9.33352ZM8.29859 9.33352H9.63192V8.00019H8.29859V9.33352ZM12.2986 9.33352H10.9653V8.00019H12.2986V9.33352ZM5.63189 12.0001H6.96523V10.6668H5.63189V12.0001ZM9.63192 12.0001H8.29859V10.6668H9.63192V12.0001Z" fill="#1D2C4A" fill-opacity="0.3"/>
</svg>
