<svg width="54" height="57" viewBox="0 0 54 57" fill="none" xmlns="http://www.w3.org/2000/svg">
    <g filter="url(#filter0_d)">
        <path fill-rule="evenodd" clip-rule="evenodd" d="M24.9999 36.6668C27.8742 36.6668 30.6449 35.9368 33.0991 34.5698L40.1577 35.158L39.5695 28.0993C40.9366 25.6452 41.6666 22.8744 41.6666 20.0002C41.6666 10.7954 34.2047 3.3335 24.9999 3.3335C15.7952 3.3335 8.33325 10.7954 8.33325 20.0002C8.33325 29.2049 15.7952 36.6668 24.9999 36.6668ZM31.8582 31.437L32.3193 31.1599L36.5088 31.509L36.1596 27.3195L36.4368 26.8585C37.6716 24.8042 38.3333 22.4527 38.3333 20.0002C38.3333 12.6364 32.3637 6.66683 24.9999 6.66683C17.6361 6.66683 11.6666 12.6364 11.6666 20.0002C11.6666 27.364 17.6361 33.3335 24.9999 33.3335C27.4525 33.3335 29.804 32.6719 31.8582 31.437ZM25.0005 28.3307C25.9212 28.3307 26.6677 27.5845 26.6677 26.6641C26.6677 25.7436 25.9212 24.9974 25.0005 24.9974C24.0797 24.9974 23.3333 25.7436 23.3333 26.6641C23.3333 27.5845 24.0797 28.3307 25.0005 28.3307ZM23.3333 23.3335H26.6666V21.6668C26.6666 21.6709 26.6745 21.6622 26.6923 21.6426C26.736 21.5944 26.8397 21.4802 27.0341 21.326C27.201 21.1935 27.2528 21.1592 27.6746 20.8918C29.11 19.9818 29.9999 18.3994 29.9999 16.6668C29.9999 13.9054 27.7613 11.6668 24.9999 11.6668C22.2385 11.6668 19.9999 13.9054 19.9999 16.6668H23.3333C23.3333 15.7464 24.0794 15.0002 24.9999 15.0002C25.9204 15.0002 26.6666 15.7464 26.6666 16.6668C26.6666 17.2457 26.3708 17.7716 25.8899 18.0765C25.3502 18.4186 25.2606 18.478 24.9624 18.7146C23.9712 19.501 23.3333 20.438 23.3333 21.6668V23.3335Z" fill="white"/>
    </g>
    <defs>
        <filter id="filter0_d" x="-1" y="0" width="60" height="60" filterUnits="userSpaceOnUse" color-interpolation-filters="sRGB">
            <feFlood flood-opacity="0" result="BackgroundImageFix"/>
            <feColorMatrix in="SourceAlpha" type="matrix" values="0 0 0 0 0 0 0 0 0 0 0 0 0 0 0 0 0 0 127 0"/>
            <feOffset dx="2" dy="10"/>
            <feGaussianBlur stdDeviation="5"/>
            <feColorMatrix type="matrix" values="0 0 0 0 0 0 0 0 0 0 0 0 0 0 0 0 0 0 0.25 0"/>
            <feBlend mode="normal" in2="BackgroundImageFix" result="effect1_dropShadow"/>
            <feBlend mode="normal" in="SourceGraphic" in2="effect1_dropShadow" result="shape"/>
        </filter>
    </defs>
</svg>
