<svg width="56" height="51" viewBox="0 0 56 51" fill="none" xmlns="http://www.w3.org/2000/svg">
    <g filter="url(#filter0_d)">
        <path d="M42.7692 11.2103C42.9217 10.4347 42.5859 10 41.7916 10H37.7908C36.8747 10 36.5385 10.4033 36.2638 10.9929C36.2638 10.9929 34.1433 15.9046 31.5112 18.8555C30.6664 19.8096 30.5181 20.0966 30.0517 20.0966C29.6754 20.0966 29.5019 19.7779 29.5019 18.9173V11.3771C29.5019 10.322 29.3812 10 28.5246 10H22.1563C21.665 10 21.3368 10.2719 21.3368 10.6658C21.3368 11.6594 22.8333 11.8837 22.8333 14.5758V20.1302C22.8333 21.2474 22.7722 21.6817 22.253 21.6817C20.8787 21.6817 17.3098 16.9007 15.4775 11.4392C15.1108 10.322 14.7156 10 13.6738 10H9.68324C9.10292 10 8.66675 10.4149 8.66675 11.0045C8.66675 12.0906 9.91875 17.1177 14.836 23.8513C18.1343 28.3817 22.7523 30.8333 26.6614 30.8333C29.0438 30.8333 29.5019 30.4131 29.5019 29.3888V25.9135C29.5019 25.0447 29.8378 24.6721 30.3264 24.6721C30.8762 24.6721 31.6875 24.8687 33.9547 27.1407C36.6421 29.7472 36.8255 30.8333 38.2917 30.8333H42.7808C43.2392 30.8333 43.6667 30.616 43.6667 29.8404C43.6667 28.8161 42.3533 26.9854 40.3376 24.8132C39.5131 23.6961 38.1692 22.4861 37.7416 21.9275C37.1308 21.2758 37.3141 20.9032 37.7416 20.2208C37.7416 20.2208 42.3108 13.3825 42.7692 11.2103Z" fill="white"/>
    </g>
    <defs>
        <filter id="filter0_d" x="-1" y="0" width="60" height="60" filterUnits="userSpaceOnUse" color-interpolation-filters="sRGB">
            <feFlood flood-opacity="0" result="BackgroundImageFix"/>
            <feColorMatrix in="SourceAlpha" type="matrix" values="0 0 0 0 0 0 0 0 0 0 0 0 0 0 0 0 0 0 127 0"/>
            <feOffset dx="2" dy="10"/>
            <feGaussianBlur stdDeviation="5"/>
            <feColorMatrix type="matrix" values="0 0 0 0 0 0 0 0 0 0 0 0 0 0 0 0 0 0 0.25 0"/>
            <feBlend mode="normal" in2="BackgroundImageFix" result="effect1_dropShadow"/>
            <feBlend mode="normal" in="SourceGraphic" in2="effect1_dropShadow" result="shape"/>
        </filter>
    </defs>
</svg>
